<?xml version="1.0" encoding="utf-8"?>
<svg viewBox="0 0 25 25" xmlns="http://www.w3.org/2000/svg" xmlns:bx="https://boxy-svg.com">
  <ellipse style="stroke-width: 0px; stroke: rgb(159, 104, 104); fill: rgb(25, 222, 153);" cx="11.45" cy="19.678" rx="1.733" ry="1.897"/>
  <ellipse style="stroke-width: 0px; stroke: rgb(159, 104, 104); fill: rgb(29, 221, 218);" cx="6.569" cy="14.689" rx="1.733" ry="1.897"/>
  <ellipse style="stroke-width: 0px; stroke: rgb(159, 104, 104); fill: rgb(21, 216, 50);" cx="8.447" cy="7.514" rx="1.733" ry="1.897"/>
  <ellipse style="stroke: rgb(0, 0, 0); stroke-width: 0px; fill: rgb(207, 174, 135);" cx="22.056" cy="9.22" rx="1.996" ry="4.122"/>
  <ellipse style="stroke-width: 0px; stroke: rgb(103, 74, 0); fill: rgb(207, 174, 135);" cx="20.093" cy="8.677" rx="1.953" ry="4.327"/>
  <ellipse style="stroke-width: 0px; stroke: rgb(103, 74, 0); fill: rgb(207, 174, 135);" cx="20.226" cy="4.805" rx="1.953" ry="1.655"/>
  <ellipse style="stroke-width: 0px; stroke: rgb(103, 74, 0); fill: rgb(207, 174, 135);" cx="18.774" cy="8.484" rx="1.953" ry="4.327"/>
  <ellipse style="stroke-width: 0px; stroke: rgb(103, 74, 0); fill: rgb(207, 174, 135);" cx="19.013" cy="6.729" rx="1.955" ry="3.876"/>
  <ellipse style="stroke-width: 0px; stroke: rgb(103, 74, 0); fill: rgb(207, 174, 135);" cx="14.727" cy="2.922" rx="4.788" ry="1.896"/>
  <ellipse style="stroke-width: 0px; stroke: rgb(103, 74, 0); fill: rgb(207, 174, 135);" cx="17.681" cy="3.721" rx="0.766" ry="1.834"/>
  <ellipse style="stroke-width: 0px; stroke: rgb(103, 74, 0); fill: rgb(207, 174, 135);" cx="11.686" cy="4.698" rx="1.953" ry="4.327"/>
  <ellipse style="stroke-width: 0px; stroke: rgb(103, 74, 0); fill: rgb(207, 174, 135);" cx="20.093" cy="8.677" rx="1.953" ry="4.327" transform="matrix(-0.006807, 0.999977, -1.000211, 0.027535, 19.934675, -17.854368)"/>
  <ellipse style="stroke-width: 0px; stroke: rgb(103, 74, 0); fill: rgb(207, 174, 135);" cx="11.573" cy="12.106" rx="1.953" ry="4.327" bx:origin="-0.03 0.583"/>
  <ellipse style="stroke-width: 0px; stroke: rgb(103, 74, 0); fill: rgb(207, 174, 135);" cx="13.237" cy="11.9" rx="1.953" ry="4.327"/>
  <ellipse style="stroke-width: 0px; stroke: rgb(103, 74, 0); fill: rgb(207, 174, 135);" cx="14.816" cy="12.843" rx="1.953" ry="4.327"/>
  <ellipse style="stroke-width: 0px; stroke: rgb(103, 74, 0); fill: rgb(207, 174, 135);" cx="16.731" cy="10.457" rx="1.953" ry="2.226"/>
  <ellipse style="stroke-width: 0px; stroke: rgb(103, 74, 0); fill: rgb(207, 174, 135);" cx="12.234" cy="6.176" rx="1.759" ry="3.895"/>
  <ellipse style="stroke-width: 0px; stroke: rgb(103, 74, 0); fill: rgb(207, 174, 135);" cx="4.046" cy="8.564" rx="1.953" ry="4.327"/>
  <ellipse style="stroke-width: 0px; stroke: rgb(103, 74, 0); fill: rgb(207, 174, 135);" cx="8.278" cy="11.001" rx="4.908" ry="1.731"/>
  <ellipse style="stroke-width: 0px; stroke: rgb(103, 74, 0); fill: rgb(207, 174, 135);" cx="9.873" cy="13.668" rx="1.953" ry="4.327"/>
  <ellipse style="stroke-width: 0px; stroke: rgb(103, 74, 0); fill: rgb(207, 174, 135);" cx="12.232" cy="13.495" rx="1.953" ry="4.327"/>
  <ellipse style="stroke-width: 0px; stroke: rgb(103, 74, 0); fill: rgb(207, 174, 135);" cx="7.66" cy="19.698" rx="1.953" ry="3.497"/>
  <ellipse style="stroke-width: 0px; stroke: rgb(103, 74, 0); fill: rgb(207, 174, 135);" cx="15.908" cy="19.755" rx="1.953" ry="4.327"/>
  <ellipse style="stroke-width: 0px; stroke: rgb(103, 74, 0); fill: rgb(207, 174, 135);" cx="15.052" cy="12.61" rx="1.953" ry="4.327"/>
  <ellipse style="stroke-width: 0px; stroke: rgb(103, 74, 0); fill: rgb(207, 174, 135);" cx="17.716" cy="20.522" rx="1.953" ry="2.678"/>
  <ellipse style="stroke-width: 0px; stroke: rgb(103, 74, 0); fill: rgb(207, 174, 135);" cx="15.313" cy="16.3" rx="1.631" ry="4.327"/>
  <ellipse style="stroke-width: 0px; stroke: rgb(103, 74, 0); fill: rgb(207, 174, 135);" cx="7.88" cy="17.809" rx="1.953" ry="2.091"/>
  <ellipse style="stroke-width: 0px; stroke: rgb(103, 74, 0); fill: rgb(207, 174, 135);" cx="14.754" cy="17.411" rx="1.953" ry="4.327"/>
  <ellipse style="stroke-width: 0px; stroke: rgb(103, 74, 0); fill: rgb(207, 174, 135);" cx="6.084" cy="4.476" rx="1.953" ry="2.212"/>
  <ellipse style="stroke-width: 0px; stroke: rgb(103, 74, 0); fill: rgb(207, 174, 135);" cx="9.225" cy="3.66" rx="1.953" ry="2.212"/>
  <ellipse style="stroke-width: 0px; stroke: rgb(103, 74, 0); fill: rgb(207, 174, 135);" cx="5.076" cy="8.443" rx="1.953" ry="2.212"/>
  <ellipse style="stroke-width: 0px; stroke: rgb(103, 74, 0); fill: rgb(207, 174, 135);" cx="3.305" cy="9.027" rx="1.953" ry="2.212"/>
  <ellipse style="stroke-width: 0px; stroke: rgb(103, 74, 0); fill: rgb(207, 174, 135);" cx="2.48" cy="11.08" rx="1.953" ry="2.212"/>
  <ellipse style="stroke-width: 0px; stroke: rgb(103, 74, 0); fill: rgb(207, 174, 135);" cx="2.506" cy="13.42" rx="1.953" ry="2.212"/>
  <ellipse style="stroke-width: 0px; stroke: rgb(103, 74, 0); fill: rgb(207, 174, 135);" cx="3.6" cy="12.005" rx="1.953" ry="2.212"/>
  <ellipse style="stroke-width: 0px; stroke: rgb(103, 74, 0); fill: rgb(207, 174, 135);" cx="2.918" cy="15.826" rx="1.953" ry="2.212"/>
  <ellipse style="stroke-width: 0px; stroke: rgb(103, 74, 0); fill: rgb(207, 174, 135);" cx="4.223" cy="17.909" rx="1.953" ry="2.212"/>
  <ellipse style="stroke-width: 0px; stroke: rgb(103, 74, 0); fill: rgb(207, 174, 135);" cx="5.283" cy="18.344" rx="1.953" ry="2.212"/>
  <ellipse style="stroke-width: 0px; stroke: rgb(103, 74, 0); fill: rgb(207, 174, 135);" cx="5.805" cy="19.959" rx="1.953" ry="2.212"/>
  <ellipse style="stroke-width: 0px; stroke: rgb(103, 74, 0); fill: rgb(207, 174, 135);" cx="8.626" cy="21.936" rx="1.953" ry="2.212"/>
  <ellipse style="stroke-width: 0px; stroke: rgb(103, 74, 0); fill: rgb(207, 174, 135);" cx="11.387" cy="22.914" rx="1.953" ry="1.666"/>
  <ellipse style="stroke-width: 0px; stroke: rgb(103, 74, 0); fill: rgb(207, 174, 135);" cx="11.454" cy="22.93" rx="1.953" ry="1.928"/>
  <ellipse style="stroke-width: 0px; stroke: rgb(103, 74, 0); fill: rgb(207, 174, 135);" cx="14.038" cy="22.358" rx="1.953" ry="2.212"/>
  <ellipse style="stroke-width: 0px; stroke: rgb(159, 104, 104); fill: rgb(25, 222, 153);" cx="15.277" cy="6.415" rx="1.854" ry="1.946"/>
  <path id="Paint_Color_Palette" data-name="Paint Color Palette" d="M 12.482 24.922 C 2.859 24.922 -3.155 14.506 1.657 6.172 C 3.889 2.305 8.016 -0.078 12.482 -0.078 C 16.483 -0.098 20.276 1.701 22.792 4.812 C 25.552 8.372 25.252 11.172 24.052 12.602 C 23.241 13.662 21.789 13.99 20.602 13.382 C 18.952 12.512 17.751 12.928 17.191 13.878 C 16.631 14.828 16.882 16.532 19.042 17.722 C 20.119 18.395 20.611 19.707 20.242 20.922 C 19.742 22.922 17.442 24.922 12.482 24.922 Z M 12.482 0.922 C 3.629 0.922 -1.904 10.506 2.523 18.172 C 4.577 21.73 8.373 23.922 12.482 23.922 C 16.872 23.922 18.872 22.262 19.282 20.712 C 19.549 19.91 19.225 19.03 18.502 18.592 C 15.812 17.072 15.402 14.882 16.162 13.482 C 16.922 12.082 18.842 11.322 21.062 12.482 C 21.84 12.855 22.774 12.62 23.282 11.922 C 24.192 10.922 24.402 8.512 21.952 5.422 C 19.623 2.587 16.151 0.937 12.482 0.922 Z M 11.482 21.922 C 9.557 21.945 8.33 19.877 9.272 18.199 C 10.214 16.52 12.62 16.492 13.602 18.147 C 13.831 18.533 13.952 18.973 13.952 19.422 C 13.952 20.803 12.833 21.922 11.452 21.922 L 11.482 21.922 Z M 11.482 17.922 C 10.327 17.899 9.581 19.135 10.138 20.146 C 10.695 21.157 12.138 21.186 12.736 20.198 C 12.877 19.964 12.952 19.696 12.952 19.422 C 12.952 18.594 12.28 17.922 11.452 17.922 L 11.482 17.922 Z M 6.482 16.922 C 4.557 16.945 3.33 14.877 4.272 13.199 C 5.214 11.52 7.62 11.492 8.602 13.147 C 8.831 13.533 8.952 13.973 8.952 14.422 C 8.952 15.803 7.833 16.922 6.452 16.922 L 6.482 16.922 Z M 6.482 12.922 C 5.327 12.899 4.581 14.135 5.138 15.146 C 5.695 16.157 7.138 16.186 7.736 15.198 C 7.877 14.964 7.952 14.696 7.952 14.422 C 7.952 13.594 7.28 12.922 6.452 12.922 L 6.482 12.922 Z M 8.482 9.922 C 6.557 9.945 5.33 7.877 6.272 6.199 C 7.214 4.52 9.62 4.492 10.602 6.147 C 10.831 6.533 10.952 6.973 10.952 7.422 C 10.952 8.803 9.833 9.922 8.452 9.922 L 8.482 9.922 Z M 8.482 5.922 C 7.327 5.899 6.581 7.135 7.138 8.146 C 7.695 9.157 9.138 9.186 9.736 8.198 C 9.877 7.964 9.952 7.696 9.952 7.422 C 9.952 6.594 9.28 5.922 8.452 5.922 L 8.482 5.922 Z M 15.482 8.922 C 13.557 8.945 12.33 6.877 13.272 5.199 C 14.214 3.52 16.62 3.492 17.602 5.147 C 17.831 5.533 17.952 5.973 17.952 6.422 C 17.952 7.803 16.833 8.922 15.452 8.922 L 15.482 8.922 Z M 15.482 4.922 C 14.327 4.899 13.581 6.135 14.138 7.146 C 14.695 8.157 16.138 8.186 16.736 7.198 C 16.877 6.964 16.952 6.696 16.952 6.422 C 16.952 5.594 16.28 4.922 15.452 4.922 L 15.482 4.922 Z" fill="#0e1d25" style=""/>
</svg>